<?xml version="1.0" encoding="UTF-8" standalone="no"?><!-- Generator: Gravit.io --><svg xmlns="http://www.w3.org/2000/svg" xmlns:xlink="http://www.w3.org/1999/xlink" style="isolation:isolate" viewBox="64.225 176.073 853.311 596.694" width="853.311pt" height="596.694pt"><defs><clipPath id="_clipPath_SR0MUtKpFcdreEGDMx56t5rxnmUZDkas"><rect x="64.225" y="176.073" width="853.311" height="596.694"/></clipPath></defs><g clip-path="url(#_clipPath_SR0MUtKpFcdreEGDMx56t5rxnmUZDkas)"><g><path d=" M 584.744 484.482 L 584.744 680.309 L 615.534 680.309 L 615.534 501.725 L 738.696 501.725 L 738.696 680.309 L 769.486 680.309 L 769.486 288.655 L 738.696 288.655 C 728.493 288.655 712.832 341.794 712.832 395.19 C 712.832 435.438 717.532 469.93 724.216 484.482 L 584.744 484.482 Z  M 738.696 484.482 L 738.396 484.482 C 738.497 484.263 738.596 484.032 738.696 483.804 L 738.696 484.482 Z " fill="rgb(63,61,86)"/><path d=" M 698.845 191.728 L 698.845 191.728 C 673.571 191.728 653.083 214.466 653.083 242.515 L 653.083 278.15 L 664.043 278.15 L 670.388 264.947 L 668.802 278.15 L 739.248 278.15 L 745.016 266.147 L 743.574 278.15 L 751.506 278.15 L 751.506 250.17 C 751.506 217.894 727.929 191.728 698.845 191.728 Z " fill="rgb(47,46,65)"/><path d=" M 646.41 424.554 L 618.312 436.496 L 520.672 515.872 C 517.082 520.284 514.882 525.662 514.35 531.326 C 513.648 540.457 484.145 588.224 494.682 594.546 C 505.218 600.868 543.15 619.834 545.258 607.19 C 547.365 594.546 558.604 540.457 558.604 540.457 L 652.732 456.164 L 646.41 424.554 Z " fill="rgb(47,46,65)"/><path d=" M 536.126 596.653 L 524.184 631.775 C 524.184 631.775 536.828 645.122 530.506 656.361 L 530.506 694.995 L 520.672 694.995 L 517.862 674.624 C 517.862 674.624 506.661 694.738 501.004 694.995 C 489.144 695.535 465.658 699.753 464.955 693.431 C 464.253 687.109 482.74 680.946 482.74 680.946 L 502.409 626.858 L 510.838 593.843 L 536.126 596.653 Z " fill="rgb(47,46,65)"/><path d=" M 719.464 415.422 C 719.464 415.422 725.786 477.237 707.522 488.477 C 707.522 488.477 608.478 535.54 608.478 535.54 C 608.478 535.54 642.897 567.853 635.873 575.58 C 635.873 575.58 597.238 604.38 593.024 600.165 C 593.024 600.165 541.745 545.375 547.365 529.218 C 547.365 529.218 630.956 460.379 630.956 460.379 L 640.088 427.364 L 642.897 400.671 L 672.4 381.705 L 719.464 415.422 Z " fill="rgb(47,46,65)"/><circle vector-effect="non-scaling-stroke" cx="687.28129" cy="242.21767" r="29.283699999999953" fill="rgb(255,185,185)"/><path d=" M 709.981 254.212 C 709.981 254.212 708.576 280.904 730.352 289.334 C 730.352 289.334 676.263 352.554 676.263 352.554 L 676.263 291.441 C 676.263 291.441 686.098 280.904 676.263 264.748 L 709.981 254.212 Z " fill="rgb(255,185,185)"/><path d=" M 756.693 379.598 L 751.074 406.993 L 734.215 501.121 C 734.215 501.121 748.264 541.16 729.298 540.457 C 729.298 540.457 719.464 496.906 719.464 496.906 L 729.298 418.935 L 729.298 388.73 L 756.693 379.598 Z " fill="rgb(255,185,185)"/><path d=" M 635.873 366.251 L 629.551 390.837 L 600.751 460.379 C 600.751 460.379 581.082 493.394 597.238 492.691 C 597.238 492.691 613.395 460.379 613.395 460.379 L 646.409 404.183 L 646.409 372.573 L 635.873 366.251 Z " fill="rgb(255,185,185)"/><path d=" M 630.956 571.365 L 654.136 593.141 C 654.136 593.141 670.293 589.629 676.615 608.594 C 676.615 608.594 687.151 639.502 687.151 639.502 L 678.722 644.419 L 668.185 629.668 C 668.185 629.668 661.863 656.361 655.541 658.468 C 655.541 658.468 617.609 674.624 620.419 658.468 L 635.873 635.99 C 635.873 635.99 637.98 610.702 631.658 608.595 C 631.658 608.595 608.478 585.414 608.478 585.414 L 630.956 571.365 Z " fill="rgb(47,46,65)"/><path d=" M 720.577 437.198 C 720.577 437.198 654.547 413.315 650.333 415.422 C 647.196 416.808 643.854 417.676 640.439 417.99 L 640.499 408.398 C 640.499 408.398 662.274 400.671 674.216 405.588 C 674.216 405.588 722.685 432.281 722.685 432.281 L 720.577 437.198 Z " fill="rgb(63,61,86)"/><path d=" M 680.478 338.505 C 680.478 338.505 699.444 316.729 705.064 303.383 C 708.619 295.292 715.145 288.874 723.295 285.456 C 723.295 285.456 765.474 294.953 764.771 311.812 C 764.771 311.812 738.078 354.661 738.078 354.661 C 738.078 354.661 741.591 448.086 722.625 446.681 C 718.534 441.799 715.647 436.025 714.195 429.823 C 712.088 419.988 646.761 409.452 646.761 409.452 C 646.761 409.452 641.141 419.286 640.439 415.071 C 639.736 410.857 646.058 307.597 646.058 307.597 L 679.556 285.456 L 680.478 338.505 Z " fill="rgb(208,205,225)"/><path d=" M 759.36 305.026 L 759.831 305.29 C 762.887 307.005 764.78 310.238 764.779 313.743 L 764.772 365.873 C 764.783 368.741 766.053 371.46 768.247 373.307 C 770.952 375.609 773.462 378.925 768.284 380.652 C 759.854 383.461 726.839 397.51 726.137 392.593 C 725.434 387.676 724.03 382.056 726.137 382.056 C 727.787 382.056 737.616 331.685 745.515 310.149 C 746.491 307.48 748.589 305.374 751.254 304.388 C 753.919 303.403 756.882 303.636 759.36 305.026 Z " fill="rgb(208,205,225)"/><path d=" M 655.541 305.139 L 645.707 307.949 L 634.468 356.417 C 634.468 356.417 621.122 359.227 625.336 364.144 C 625.336 364.144 647.112 381.705 647.112 381.705 L 655.541 305.139 Z " fill="rgb(208,205,225)"/><path d=" M 711.855 205.718 C 707.391 199.724 700.39 196.152 692.918 196.055 L 692.019 196.055 C 674.697 196.055 660.654 211.73 660.654 231.066 L 660.654 231.066 L 666.458 231.066 L 667.396 223.931 L 668.77 231.066 L 703.196 231.066 L 706.08 225.03 L 705.359 231.066 L 712.131 231.066 Q 716.872 254.608 698.509 278.15 L 710.046 278.15 L 715.814 266.078 L 714.372 278.15 L 736.364 278.15 L 740.69 250.383 C 740.69 229.587 728.607 211.953 711.855 205.718 Z " fill="rgb(47,46,65)"/><path d=" M 123.535 529.728 C 130.925 513.639 136.122 475.501 136.122 431.001 C 136.122 371.963 118.806 313.209 107.525 313.209 L 73.481 313.209 L 73.481 746.248 L 107.525 746.248 L 107.525 548.793 L 243.701 548.793 L 243.701 746.248 L 277.745 746.248 L 277.745 529.728 L 123.535 529.728 Z  M 107.525 528.979 C 107.635 529.231 107.745 529.486 107.856 529.728 L 107.525 529.728 L 107.525 528.979 Z " fill="rgb(63,61,86)"/><path d=" M 265.433 450.728 C 265.433 450.728 306.433 467.728 293.433 477.728 C 293.433 477.728 253.433 465.728 254.433 462.728 C 254.433 462.728 250.433 452.728 250.433 452.728 L 265.433 450.728 Z " fill="rgb(159,97,106)"/><path d=" M 229.433 316.728 L 242.433 328.728 L 245.433 363.728 L 255.433 400.728 C 255.433 400.728 272.433 435.728 269.433 442.728 C 269.433 442.728 272.433 451.728 272.433 451.728 L 249.433 460.728 C 249.433 460.728 224.433 432.728 224.433 426.728 C 224.433 420.728 229.433 316.728 229.433 316.728 Z " fill="rgb(87,90,136)"/><g opacity="0.1"><path d=" M 229.433 316.728 L 242.433 328.728 L 245.433 363.728 L 255.433 400.728 C 255.433 400.728 272.433 435.728 269.433 442.728 C 269.433 442.728 272.433 451.728 272.433 451.728 L 249.433 460.728 C 249.433 460.728 224.433 432.728 224.433 426.728 C 224.433 420.728 229.433 316.728 229.433 316.728 Z " fill="rgb(0,0,0)"/></g><path d=" M 352.433 676.728 C 352.433 676.728 347.433 699.728 346.433 701.728 C 346.433 701.728 365.433 710.728 365.433 710.728 L 389.433 693.728 C 389.433 693.728 379.433 671.728 379.433 667.728 L 352.433 676.728 Z " fill="rgb(87,90,136)"/><path d=" M 221.433 452.728 L 228.433 460.728 C 228.433 460.728 373.433 478.728 376.433 506.728 C 376.433 506.728 400.433 666.728 388.433 670.728 C 388.433 670.728 345.433 689.728 345.433 681.728 C 345.433 681.728 325.433 563.728 329.433 543.728 C 329.433 543.728 156.433 521.728 152.433 496.728 C 148.433 471.728 156.433 460.728 156.433 460.728 L 221.433 452.728 Z " fill="rgb(47,46,65)"/><g opacity="0.1"><path d=" M 221.433 452.728 L 228.433 460.728 C 228.433 460.728 373.433 478.728 376.433 506.728 C 376.433 506.728 400.433 666.728 388.433 670.728 C 388.433 670.728 345.433 689.728 345.433 681.728 C 345.433 681.728 325.433 563.728 329.433 543.728 C 329.433 543.728 156.433 521.728 152.433 496.728 C 148.433 471.728 156.433 460.728 156.433 460.728 L 221.433 452.728 Z " fill="rgb(0,0,0)"/></g><path d=" M 350.433 699.728 C 350.433 699.728 346.433 690.728 344.433 693.728 C 344.433 693.728 335.433 731.728 342.433 731.728 C 342.433 731.728 413.433 747.728 422.433 745.728 C 422.433 745.728 448.433 746.728 446.433 736.728 C 446.433 736.728 434.433 725.728 434.433 725.728 C 434.433 725.728 397.433 703.728 395.433 692.728 C 395.433 692.728 382.433 687.728 382.433 687.728 L 382.433 694.728 C 382.433 694.728 361.433 710.728 350.433 699.728 Z " fill="rgb(47,46,65)"/><path d=" M 160.433 240.728 C 160.433 240.728 167.433 274.728 152.433 277.728 C 152.433 277.728 171.433 300.728 171.433 300.728 L 193.433 312.728 L 209.433 296.728 C 209.433 296.728 194.933 267.228 205.933 245.228 C 216.933 223.228 160.433 240.728 160.433 240.728 Z " fill="rgb(159,97,106)"/><path d=" M 209.433 296.728 L 193.433 312.728 L 171.433 300.728 C 171.433 300.728 137.433 280.728 152.433 277.728 C 162.083 275.798 162.623 261.038 161.793 250.758 C 161.522 247.393 161.068 244.044 160.433 240.728 C 160.433 240.728 216.933 223.228 205.933 245.228 C 204.262 248.626 203.103 252.252 202.493 255.988 C 199.123 275.758 209.433 296.728 209.433 296.728 Z " fill="rgb(159,97,106)"/><path d=" M 265.433 705.728 L 265.433 728.728 L 303.433 728.728 L 306.433 719.728 L 302.433 695.728 L 265.433 705.728 L 265.433 705.728 Z " fill="rgb(87,90,136)"/><path d=" M 108.433 472.728 C 108.433 472.728 108.433 531.728 132.433 533.728 C 132.433 533.728 242.433 546.728 242.433 546.728 C 242.433 546.728 247.433 644.728 256.433 676.728 C 256.433 676.728 257.433 710.728 265.433 712.728 C 265.433 712.728 307.433 707.728 306.433 700.728 C 306.433 700.728 301.433 516.728 301.433 516.728 C 301.433 516.728 310.433 478.728 190.433 460.728 L 108.433 472.728 Z " fill="rgb(47,46,65)"/><path d=" M 268.433 721.728 C 268.433 721.728 262.433 708.728 261.433 712.728 C 261.433 712.728 248.433 751.728 260.433 754.728 C 260.433 754.728 310.433 773.728 335.433 772.728 C 335.433 772.728 363.433 770.728 363.433 770.728 C 363.433 770.728 370.433 760.728 361.433 754.728 C 361.433 754.728 315.433 713.728 313.433 709.728 C 313.433 709.728 296.433 702.728 296.433 709.728 C 296.433 716.728 275.433 730.728 268.433 721.728 Z " fill="rgb(47,46,65)"/><g opacity="0.1"><path d=" M 205.933 245.228 C 204.262 248.626 203.103 252.252 202.493 255.988 C 197.513 258.998 194.183 258.228 187.933 258.228 C 178.663 258.228 174.923 246.378 168.933 240.228 C 168.463 234.518 160.433 240.728 160.433 240.728 C 160.433 240.728 216.933 223.228 205.933 245.228 Z " fill="rgb(0,0,0)"/></g><circle vector-effect="non-scaling-stroke" cx="185.43324" cy="224.72833000000003" r="33" fill="rgb(159,97,106)"/><path d=" M 242.433 328.728 C 242.433 328.728 237.433 364.728 234.433 377.728 C 234.433 377.728 227.433 450.728 225.433 458.728 C 225.433 458.728 211.433 468.728 187.433 465.728 C 185.927 465.539 184.411 465.425 182.893 465.388 C 168.113 464.918 151.203 470.448 135.553 474.788 C 126.553 477.288 117.963 479.388 110.433 479.728 C 99.033 480.248 95.693 467.608 96.083 453.928 C 96.453 441.198 100.063 427.548 103.433 422.728 C 109.503 414.048 103.533 336.118 105.773 310.418 L 105.773 310.408 C 106.113 306.488 106.643 303.788 107.433 302.728 C 113.433 294.728 152.433 274.728 156.803 275.538 C 161.163 276.348 198.433 299.728 198.433 299.728 C 207.433 299.728 207.143 289.968 207.143 289.968 C 207.143 289.968 213.433 301.728 225.433 304.728 C 237.433 307.728 242.433 328.728 242.433 328.728 Z " fill="rgb(87,90,136)"/><path d=" M 175.586 458.371 C 175.586 458.371 240.002 460.422 228.718 468.075 C 228.718 468.075 167.433 482.728 166.433 472.728 C 165.433 462.728 175.586 458.371 175.586 458.371 Z " fill="rgb(159,97,106)"/><g opacity="0.1"><path d=" M 182.893 465.388 C 183.103 469.228 172.773 477.878 169.433 483.728 C 167.583 486.968 153.263 482.698 135.553 474.788 C 121.963 468.688 108.779 461.721 96.083 453.928 C 96.453 441.198 100.063 427.548 103.433 422.728 C 109.503 414.048 103.533 336.118 105.773 310.418 L 105.773 310.408 C 106.307 310.137 106.862 309.91 107.433 309.728 L 119.433 309.728 C 160.433 328.728 113.433 410.728 113.433 410.728 C 113.433 410.728 175.433 461.728 181.433 463.728 C 182.243 463.882 182.844 464.566 182.893 465.388 L 182.893 465.388 Z " fill="rgb(0,0,0)"/></g><path d=" M 119.433 303.728 L 107.433 303.728 C 107.433 303.728 96.433 306.728 87.433 326.728 C 87.433 326.728 45.433 408.728 74.433 432.728 C 74.433 432.728 165.433 484.728 169.433 477.728 C 169.433 477.728 187.433 459.728 181.433 457.728 C 181.433 457.728 113.433 404.728 113.433 404.728 C 113.433 404.728 160.433 322.728 119.433 303.728 Z " fill="rgb(87,90,136)"/><path d=" M 180.356 209.373 C 180.356 209.373 181.805 189.325 199.67 197.499 C 199.67 197.499 216.37 183.143 210.971 179.161 C 210.971 179.161 205.743 174.194 185.997 176.858 C 185.997 176.858 127.916 184.036 140.311 223.739 C 140.311 223.739 163.933 253.228 163.933 253.228 C 163.933 253.228 154.08 217.501 164.064 224.307 L 174.047 231.114 L 179.315 229.998 L 180.356 209.373 Z " fill="rgb(47,46,65)"/><path d=" M 917.535 498.046 C 917.535 479.996 783.406 465.364 617.949 465.364 C 452.492 465.364 318.362 479.996 318.362 498.046 C 318.362 505.042 338.521 511.523 372.833 516.839 L 372.833 740.439 L 389.174 740.439 L 389.174 519.145 C 444.128 526.229 526.215 530.728 617.949 530.728 C 710.44 530.728 793.131 526.155 848.086 518.969 L 848.086 740.439 L 864.427 740.439 L 864.427 516.625 C 897.905 511.349 917.535 504.948 917.535 498.046 Z " fill="rgb(63,61,86)"/><ellipse vector-effect="non-scaling-stroke" cx="655.48109" cy="483.72833" rx="61" ry="15" fill="rgb(242,242,242)"/><ellipse vector-effect="non-scaling-stroke" cx="655.48109" cy="483.72833" rx="50" ry="12.295079999999984" fill="rgb(208,205,225)"/><ellipse vector-effect="non-scaling-stroke" cx="428.48109" cy="495.72833" rx="61" ry="15" fill="rgb(242,242,242)"/><ellipse vector-effect="non-scaling-stroke" cx="428.48109" cy="495.72833" rx="50" ry="12.295079999999984" fill="rgb(208,205,225)"/><ellipse vector-effect="non-scaling-stroke" cx="654.06147" cy="478.07756" rx="29.080389999999966" ry="4.591639999999984" fill="rgb(159,97,106)"/><ellipse vector-effect="non-scaling-stroke" cx="638.56469" cy="471.38142" rx="9.183279999999968" ry="4.974280000000022" fill="rgb(138,189,170)"/><ellipse vector-effect="non-scaling-stroke" cx="635.12096" cy="471.38142" rx="9.183279999999968" ry="4.974280000000022" fill="rgb(138,189,170)"/><ellipse vector-effect="non-scaling-stroke" cx="675.29781" cy="472.52933" rx="9.183279999999968" ry="4.974280000000022" fill="rgb(138,189,170)"/><ellipse vector-effect="non-scaling-stroke" cx="654.25279" cy="471.38142" rx="9.183279999999968" ry="4.974280000000022" fill="rgb(138,189,170)"/><ellipse vector-effect="non-scaling-stroke" cx="669.9409" cy="471.38142" rx="9.183279999999968" ry="4.974280000000022" fill="rgb(138,189,170)"/><path d=" M 681.803 468.32 Q 656.907 476.768 625.938 468.32 L 625.938 467.545 C 625.93 455.384 635.461 445.354 647.607 444.741 C 652.529 444.493 657.46 444.499 662.381 444.76 C 673.305 445.396 681.83 454.454 681.803 465.397 L 681.803 468.32 Z " fill="rgb(63,61,86)"/><path d=" M 673.654 489.406 C 661.389 490.645 649.03 490.645 636.764 489.406 C 630.737 488.815 626.138 483.751 626.129 477.695 L 684.29 477.695 C 684.28 483.751 679.682 488.815 673.654 489.406 L 673.654 489.406 Z " fill="rgb(63,61,86)"/><path d=" M 646.217 451.867 C 643.524 452.989 640.493 452.989 637.799 451.867 C 640.493 450.745 643.524 450.745 646.217 451.867 Z " fill="rgb(208,205,225)"/><path d=" M 654.635 455.311 C 651.942 456.433 648.911 456.433 646.217 455.311 C 648.911 454.188 651.942 454.188 654.635 455.311 L 654.635 455.311 Z " fill="rgb(208,205,225)"/><path d=" M 655.401 449.188 C 652.707 450.311 649.676 450.311 646.983 449.188 C 649.676 448.066 652.707 448.066 655.401 449.188 Z " fill="rgb(208,205,225)"/><path d=" M 671.089 449.188 C 668.395 450.311 665.365 450.311 662.671 449.188 C 665.365 448.066 668.395 448.066 671.089 449.188 Z " fill="rgb(208,205,225)"/><path d=" M 666.88 452.632 C 664.186 453.755 661.156 453.755 658.462 452.632 C 661.156 451.51 664.186 451.51 666.88 452.632 Z " fill="rgb(208,205,225)"/><ellipse vector-effect="non-scaling-stroke" cx="428.06147" cy="490.07756" rx="29.080390000000023" ry="4.591639999999984" fill="rgb(159,97,106)"/><ellipse vector-effect="non-scaling-stroke" cx="412.56469" cy="483.38142" rx="9.183280000000025" ry="4.974280000000022" fill="rgb(138,189,170)"/><ellipse vector-effect="non-scaling-stroke" cx="409.12096" cy="483.38142" rx="9.183280000000025" ry="4.974280000000022" fill="rgb(138,189,170)"/><ellipse vector-effect="non-scaling-stroke" cx="449.29781" cy="484.52933" rx="9.183280000000025" ry="4.974280000000022" fill="rgb(138,189,170)"/><ellipse vector-effect="non-scaling-stroke" cx="428.25279" cy="483.38142" rx="9.183280000000025" ry="4.974280000000022" fill="rgb(138,189,170)"/><ellipse vector-effect="non-scaling-stroke" cx="443.9409" cy="483.38142" rx="9.183280000000025" ry="4.974280000000022" fill="rgb(138,189,170)"/><path d=" M 455.803 480.32 Q 430.907 488.768 399.938 480.32 L 399.938 479.545 C 399.93 467.384 409.461 457.354 421.607 456.741 C 426.529 456.493 431.46 456.499 436.381 456.76 C 447.305 457.396 455.83 466.454 455.803 477.397 L 455.803 480.32 Z " fill="rgb(63,61,86)"/><path d=" M 447.654 501.406 C 435.389 502.645 423.03 502.645 410.764 501.406 C 404.737 500.815 400.138 495.751 400.129 489.695 L 458.29 489.695 C 458.28 495.751 453.682 500.815 447.654 501.406 L 447.654 501.406 Z " fill="rgb(63,61,86)"/><path d=" M 420.217 463.867 C 417.524 464.989 414.493 464.989 411.799 463.867 C 414.493 462.745 417.524 462.745 420.217 463.867 Z " fill="rgb(208,205,225)"/><path d=" M 428.635 467.311 C 425.942 468.433 422.911 468.433 420.217 467.311 C 422.911 466.188 425.942 466.188 428.635 467.311 Z " fill="rgb(208,205,225)"/><path d=" M 429.401 461.188 C 426.707 462.311 423.676 462.311 420.983 461.188 C 423.676 460.066 426.707 460.066 429.401 461.188 L 429.401 461.188 Z " fill="rgb(208,205,225)"/><path d=" M 445.089 461.188 C 442.395 462.311 439.365 462.311 436.671 461.188 C 439.365 460.066 442.395 460.066 445.089 461.188 Z " fill="rgb(208,205,225)"/><path d=" M 440.88 464.632 C 438.186 465.755 435.156 465.755 432.462 464.632 C 435.156 463.51 438.186 463.51 440.88 464.632 L 440.88 464.632 Z " fill="rgb(208,205,225)"/><path d=" M 707.958 479.664 L 708.099 482.761 L 708.278 486.779 C 708.278 486.779 689.826 487.822 686.109 491.75 C 686.023 491.834 685.944 491.925 685.872 492.022 L 678.481 490.404 L 678.463 486.763 C 678.463 486.763 678.565 486.707 678.763 486.6 C 678.808 486.576 678.865 486.546 678.922 486.516 C 687.966 482.088 697.888 479.746 707.958 479.664 Z " fill="rgb(138,189,170)"/><g opacity="0.1"><path d=" M 707.958 479.664 L 708.099 482.761 C 699.916 483.014 684.431 487.892 684.431 487.892 L 678.763 486.6 C 687.846 482.113 697.828 479.742 707.958 479.664 Z " fill="rgb(0,0,0)"/></g><g opacity="0.1"><path d=" M 678.922 486.516 L 684.431 487.892 L 686.109 491.75 C 686.023 491.834 685.944 491.925 685.872 492.022 L 678.481 490.404 L 678.463 486.763 C 678.463 486.763 678.565 486.707 678.763 486.6 C 678.808 486.576 678.865 486.546 678.922 486.516 Z " fill="rgb(255,255,255)"/></g><path d=" M 484.958 492.664 L 485.099 495.761 L 485.278 499.779 C 485.278 499.779 466.826 500.822 463.109 504.75 C 463.023 504.834 462.944 504.925 462.872 505.022 L 455.481 503.404 L 455.463 499.763 C 455.463 499.763 455.565 499.707 455.763 499.6 C 455.808 499.576 455.865 499.546 455.922 499.516 C 464.966 495.088 474.888 492.746 484.958 492.664 Z " fill="rgb(138,189,170)"/><g opacity="0.1"><path d=" M 484.958 492.664 L 485.099 495.761 C 476.916 496.014 461.431 500.892 461.431 500.892 L 455.763 499.6 C 464.846 495.113 474.828 492.742 484.958 492.664 Z " fill="rgb(0,0,0)"/></g><g opacity="0.1"><path d=" M 455.922 499.516 L 461.431 500.892 L 463.109 504.75 C 463.023 504.834 462.944 504.925 462.872 505.022 L 455.481 503.404 L 455.463 499.763 C 455.463 499.763 455.565 499.707 455.763 499.6 C 455.808 499.576 455.865 499.546 455.922 499.516 Z " fill="rgb(255,255,255)"/></g><path d=" M 819.087 386.884 C 817.512 385.311 815.667 384.036 813.639 383.12 L 813.639 344.264 C 813.639 343.808 813.458 343.371 813.136 343.049 C 812.814 342.727 812.377 342.546 811.921 342.546 L 802.302 342.546 C 801.846 342.546 801.409 342.727 801.087 343.049 C 800.765 343.371 800.584 343.808 800.584 344.264 L 800.584 382.375 C 793.453 384.74 788.638 391.407 788.636 398.921 L 788.636 482.273 C 788.636 484.298 789.44 486.241 790.873 487.674 C 792.305 489.106 794.248 489.911 796.274 489.911 L 816.878 489.911 C 821.077 489.911 824.481 486.507 824.481 482.308 L 824.481 399.903 C 824.487 395.018 822.546 390.333 819.087 386.884 L 819.087 386.884 Z " fill="rgb(63,61,86)"/><rect x="788.636" y="411.139" width="35.845" height="47.351" transform="matrix(1,0,0,1,0,0)" fill="rgb(138,189,170)"/><path d=" M 814.413 345.201 L 813.639 345.201 L 813.639 344.264 C 813.639 343.808 813.458 343.371 813.136 343.049 C 812.814 342.727 812.377 342.546 811.921 342.546 L 802.302 342.546 C 801.846 342.546 801.409 342.727 801.087 343.049 C 800.765 343.371 800.584 343.808 800.584 344.264 L 800.584 345.201 L 799.81 345.201 L 799.81 349.184 L 800.584 349.184 L 800.584 369.541 L 813.639 369.541 L 813.639 349.184 L 814.413 349.184 L 814.413 345.201 Z " fill="rgb(138,189,170)"/><path d=" M 532.075 420.61 C 531.126 418.585 530.378 417.153 530.116 416.66 C 514.026 420.631 503.29 417.276 501.597 416.682 C 500.77 418.246 495.601 428.239 493.512 437.821 C 491.625 446.463 492.72 452.257 496.768 455.041 L 496.888 455.126 L 496.914 455.144 C 501.382 458.088 505.643 460.695 509.58 462.892 Q 510.376 463.335 511.08 463.715 L 511.13 463.743 L 511.166 463.787 C 511.706 464.468 512.209 465.178 512.673 465.914 C 513.542 467.13 514.07 468.557 514.201 470.047 L 514.201 512.971 L 513.93 512.976 C 503.667 513.186 497.314 514.926 497.314 516.417 C 497.314 518.054 504.932 519.878 515.862 519.878 C 526.793 519.878 534.41 518.054 534.41 516.417 C 534.41 514.948 528.165 513.217 518.076 512.984 L 517.804 512.978 L 518.058 473.273 C 518.064 470.584 518.689 467.934 519.884 465.526 C 520.088 465.121 520.307 464.727 520.535 464.357 C 520.718 464.058 520.912 463.767 521.111 463.492 L 521.148 463.441 L 521.203 463.411 Q 521.961 462.997 522.813 462.514 L 522.879 462.478 C 526.605 460.374 530.619 457.907 534.812 455.143 C 538.555 452.675 539.858 447.688 538.686 440.319 C 537.568 433.293 534.474 425.723 532.075 420.61 Z " fill="rgb(208,205,225)"/><path d=" M 533.037 454.243 C 528.641 457.141 525.012 459.313 522.237 460.879 L 522.234 460.879 C 518.185 460.603 514.119 460.717 510.093 461.22 C 507.247 459.632 503.409 457.355 498.688 454.243 C 498.643 454.213 498.598 454.184 498.553 454.151 L 498.553 454.149 C 494.222 451.169 494.115 444.86 495.524 438.408 C 499.108 438.01 504.823 438.184 512.502 440.927 C 521.594 444.175 531.113 442.338 536.628 440.668 C 537.534 446.36 536.982 451.642 533.037 454.243 Z " fill="rgb(138,189,170)"/><circle vector-effect="non-scaling-stroke" cx="506.90154" cy="434.82862" r="1.2445299999999975" fill="rgb(138,189,170)"/><circle vector-effect="non-scaling-stroke" cx="503.41686" cy="446.27828" r="1.2445299999999975" fill="rgb(255,255,255)"/><circle vector-effect="non-scaling-stroke" cx="509.8884" cy="437.81549" r="0.7467199999999821" fill="rgb(138,189,170)"/><circle vector-effect="non-scaling-stroke" cx="512.87527" cy="452.00311" r="0.7467199999999821" fill="rgb(255,255,255)"/><circle vector-effect="non-scaling-stroke" cx="507.64825" cy="452.74983" r="0.7467199999999821" fill="rgb(255,255,255)"/><circle vector-effect="non-scaling-stroke" cx="522.83149" cy="427.85927" r="0.7467199999999821" fill="rgb(138,189,170)"/><path d=" M 590.454 380.144 C 589.505 378.12 588.756 376.687 588.494 376.195 C 572.404 380.165 561.669 376.81 559.976 376.217 C 559.148 377.78 553.979 387.774 551.89 397.355 C 550.003 405.997 551.099 411.791 555.146 414.575 L 555.266 414.661 L 555.292 414.678 C 559.76 417.622 564.022 420.229 567.958 422.427 Q 568.754 422.869 569.458 423.25 L 569.509 423.277 L 569.544 423.322 C 570.085 424.003 570.588 424.712 571.051 425.448 C 571.921 426.664 572.449 428.091 572.58 429.581 L 572.58 472.505 L 572.308 472.511 C 562.045 472.72 555.692 474.46 555.692 475.952 C 555.692 477.588 563.31 479.412 574.241 479.412 C 585.171 479.412 592.789 477.588 592.789 475.952 C 592.789 474.482 586.544 472.752 576.455 472.519 L 576.182 472.512 L 576.436 432.807 C 576.442 430.119 577.067 427.468 578.262 425.06 C 578.466 424.655 578.685 424.262 578.913 423.891 C 579.096 423.592 579.29 423.301 579.49 423.026 L 579.526 422.976 L 579.581 422.946 Q 580.339 422.532 581.191 422.048 L 581.258 422.012 C 584.983 419.908 588.998 417.441 593.19 414.677 C 596.933 412.21 598.237 407.222 597.064 399.853 C 595.946 392.827 592.852 385.257 590.454 380.144 Z " fill="rgb(208,205,225)"/><path d=" M 591.415 413.778 C 587.019 416.675 583.39 418.848 580.615 420.413 L 580.613 420.413 C 576.564 420.137 572.498 420.251 568.471 420.754 C 565.626 419.166 561.788 416.889 557.066 413.778 C 557.021 413.748 556.977 413.718 556.932 413.685 L 556.932 413.683 C 552.601 410.704 552.494 404.394 553.903 397.942 C 557.487 397.544 563.202 397.718 570.88 400.461 C 579.973 403.709 589.491 401.872 595.007 400.202 C 595.913 405.895 595.36 411.176 591.415 413.778 Z " fill="rgb(138,189,170)"/><circle vector-effect="non-scaling-stroke" cx="565.27997" cy="394.3629" r="1.2445300000000543" fill="rgb(138,189,170)"/><circle vector-effect="non-scaling-stroke" cx="561.79529" cy="405.81255" r="1.2445300000000543" fill="rgb(255,255,255)"/><circle vector-effect="non-scaling-stroke" cx="568.26683" cy="397.34976" r="0.7467199999999821" fill="rgb(138,189,170)"/><circle vector-effect="non-scaling-stroke" cx="571.2537" cy="411.53738" r="0.7467199999999821" fill="rgb(255,255,255)"/><circle vector-effect="non-scaling-stroke" cx="566.02668" cy="412.2841" r="0.7467199999999821" fill="rgb(255,255,255)"/><circle vector-effect="non-scaling-stroke" cx="581.20992" cy="387.39354" r="0.7467199999999821" fill="rgb(138,189,170)"/></g></g></svg>