<?xml version="1.0" encoding="UTF-8" standalone="no"?><!-- Generator: Gravit.io --><svg xmlns="http://www.w3.org/2000/svg" xmlns:xlink="http://www.w3.org/1999/xlink" style="isolation:isolate" viewBox="717.6 334.2 801.197 614.274" width="801.197pt" height="614.274pt"><defs><clipPath id="_clipPath_vzlhVnB3cytn6JF4MGQMfai4V46zYeCG"><rect x="717.6" y="334.2" width="801.197" height="614.274"/></clipPath></defs><g clip-path="url(#_clipPath_vzlhVnB3cytn6JF4MGQMfai4V46zYeCG)"><g><path d=" M 1261.373 946.511 C 1260.592 947.177 1259.786 947.827 1258.971 948.468 L 1160.1 948.468 C 1159.533 947.827 1158.965 947.177 1158.406 946.511 C 1153.841 941.036 1149.822 935.127 1146.407 928.87 C 1138.289 914.247 1135.493 895.076 1135.493 875.552 C 1135.493 874.36 1135.501 873.167 1135.526 871.975 C 1135.616 866.497 1135.921 861.012 1136.373 855.617 C 1136.455 854.679 1136.538 853.75 1136.628 852.82 C 1137.36 845.081 1138.388 837.548 1139.556 830.508 C 1139.704 829.612 1139.852 828.723 1140.008 827.843 C 1142.388 813.861 1145.579 800.03 1149.565 786.418 C 1149.565 786.418 1149.696 786.451 1149.951 786.517 C 1150.683 786.722 1152.435 787.207 1155.009 787.972 C 1162.098 790.078 1175.413 794.321 1190.768 800.629 C 1191.607 800.967 1192.454 801.32 1193.309 801.682 C 1206.3 807.037 1218.873 813.352 1230.927 820.573 C 1231.675 821.026 1232.415 821.486 1233.155 821.947 L 1233.155 822.012 L 1231.535 874.458 L 1246.01 830.796 Q 1250.439 834.164 1254.473 837.778 C 1255.213 838.436 1255.953 839.111 1256.669 839.81 C 1262.779 845.41 1267.993 851.914 1272.13 859.096 C 1293.785 898.136 1284.697 926.838 1261.373 946.511 Z " fill="rgb(242,242,242)"/><path d=" M 1247.433 948.468 L 1244.801 948.468 C 1244.785 947.818 1244.76 947.169 1244.719 946.511 C 1243.658 926.781 1235.195 904.995 1223.673 883.966 C 1223.262 883.201 1222.843 882.419 1222.398 881.655 C 1216.806 871.654 1210.572 861.867 1204.132 852.565 C 1203.639 851.842 1203.129 851.11 1202.619 850.386 C 1194.049 838.157 1185.2 826.84 1177.206 817.177 C 1176.647 816.486 1176.071 815.811 1175.504 815.145 C 1163.653 800.934 1153.874 790.579 1149.951 786.517 C 1149.367 785.916 1148.915 785.456 1148.602 785.135 C 1148.315 784.822 1148.142 784.658 1148.109 784.625 L 1149.03 783.704 L 1149.038 783.679 L 1149.976 782.758 C 1150.009 782.799 1150.576 783.342 1151.579 784.387 C 1152.427 785.25 1153.586 786.459 1155.009 787.972 C 1159.977 793.236 1168.192 802.192 1177.7 813.55 C 1178.251 814.208 1178.818 814.89 1179.385 815.573 C 1185.874 823.411 1192.906 832.293 1199.872 841.841 Q 1202.5 845.443 1204.971 848.988 C 1205.489 849.712 1205.999 850.435 1206.492 851.159 Q 1216.942 866.234 1224.742 880.158 L 1226.041 882.485 C 1239.299 906.664 1246.438 928.08 1247.359 946.511 C 1247.392 947.169 1247.416 947.818 1247.433 948.468 Z " fill="rgb(255,255,255)"/><path d=" M 1192.215 798.705 C 1191.747 799.355 1191.27 799.996 1190.768 800.629 C 1186.997 805.49 1182.603 809.834 1177.7 813.55 C 1176.984 814.076 1176.252 814.619 1175.504 815.145 C 1173.463 816.57 1171.349 817.887 1169.171 819.093 C 1160.199 824.089 1150.248 827.075 1140.008 827.843 C 1139.679 827.876 1139.342 827.901 1139.013 827.917 C 1138.865 828.797 1138.725 829.677 1138.569 830.574 C 1138.898 830.557 1139.227 830.541 1139.556 830.508 C 1150.403 829.802 1160.957 826.692 1170.454 821.404 C 1172.778 820.115 1175.032 818.704 1177.206 817.177 C 1177.946 816.658 1178.67 816.116 1179.386 815.573 C 1184.63 811.589 1189.313 806.917 1193.309 801.682 C 1193.786 801.049 1194.255 800.407 1194.716 799.766 C 1193.86 799.404 1193.03 799.05 1192.215 798.705 Z " fill="rgb(255,255,255)"/><path d=" M 1231.823 818.715 C 1231.535 819.34 1231.231 819.956 1230.927 820.573 C 1225.063 832.258 1216.079 842.093 1204.971 848.988 C 1204.198 849.473 1203.417 849.942 1202.619 850.386 C 1202.38 850.526 1202.126 850.674 1201.887 850.805 C 1181.739 861.986 1157.428 862.737 1136.628 852.82 C 1136.381 852.705 1136.142 852.59 1135.904 852.475 C 1135.814 853.413 1135.731 854.35 1135.666 855.296 C 1135.896 855.403 1136.134 855.518 1136.373 855.617 C 1157.762 865.477 1182.57 864.548 1203.162 853.116 C 1203.491 852.935 1203.812 852.755 1204.133 852.565 C 1204.93 852.105 1205.72 851.636 1206.493 851.159 C 1217.877 844.063 1227.098 833.982 1233.155 822.012 C 1233.476 821.396 1233.781 820.771 1234.077 820.137 C 1233.328 819.66 1232.58 819.183 1231.823 818.715 Z " fill="rgb(255,255,255)"/><path d=" M 1254.909 835.911 C 1254.769 836.536 1254.629 837.161 1254.473 837.778 C 1250.242 855.14 1239.627 870.271 1224.742 880.158 C 1223.977 880.676 1223.188 881.169 1222.398 881.655 C 1221.551 882.165 1220.704 882.674 1219.832 883.151 C 1192.331 898.374 1158.111 893.837 1135.526 871.975 C 1135.336 871.802 1135.156 871.621 1134.975 871.44 C 1134.975 872.665 1134.967 873.874 1134.983 875.092 C 1135.147 875.248 1135.32 875.404 1135.493 875.552 C 1158.977 896.828 1193.392 900.811 1221.115 885.462 C 1221.987 884.985 1222.843 884.492 1223.673 883.966 C 1224.479 883.489 1225.26 882.995 1226.041 882.485 C 1241.138 872.497 1252.038 857.309 1256.669 839.81 C 1256.825 839.218 1256.981 838.625 1257.121 838.025 C 1256.406 837.301 1255.657 836.619 1254.909 835.911 Z " fill="rgb(255,255,255)"/><path d=" M 1185.956 701.988 L 717.6 701.988 L 717.6 350.599 L 1185.956 350.599 L 1185.956 701.988 Z " fill="rgb(255,255,255)"/><circle vector-effect="non-scaling-stroke" cx="831.09141" cy="405.2936026103557" r="18.64295000000004" fill="rgb(230,230,230)"/><path d=" M 874.148 392.865 C 872.434 392.868 871.046 394.258 871.046 395.972 C 871.046 397.686 872.434 399.076 874.148 399.079 L 1101.006 399.079 C 1102.72 399.076 1104.108 397.686 1104.108 395.972 C 1104.108 394.258 1102.72 392.868 1101.006 392.865 L 874.148 392.865 Z " fill="rgb(230,230,230)"/><path d=" M 874.148 411.508 C 873.038 411.506 872.011 412.096 871.454 413.056 C 870.896 414.016 870.894 415.2 871.447 416.163 C 872 417.125 873.025 417.72 874.135 417.722 L 1017.557 417.722 C 1018.668 417.724 1019.696 417.132 1020.253 416.17 C 1020.809 415.208 1020.809 414.022 1020.253 413.06 C 1019.696 412.098 1018.668 411.506 1017.557 411.508 L 874.148 411.508 Z " fill="rgb(230,230,230)"/><path d=" M 1185.956 701.988 L 717.6 701.988 L 717.6 350.599 L 1185.956 350.599 L 1185.956 701.988 Z  M 722.842 696.746 L 1180.713 696.746 L 1180.713 355.841 L 722.842 355.841 L 722.842 696.746 Z " fill="rgb(230,230,230)"/><path d=" M 743.778 457.758 L 743.778 666.758 L 1159.778 666.758 L 1159.778 457.758 L 743.778 457.758 Z  M 1157.778 509.508 L 1056.278 509.508 L 1056.278 459.758 L 1157.778 459.758 L 1157.778 509.508 Z  M 952.778 509.508 L 952.778 459.758 L 1054.278 459.758 L 1054.278 509.508 L 952.778 509.508 Z  M 1054.278 511.508 L 1054.278 561.258 L 952.778 561.258 L 952.778 511.508 L 1054.278 511.508 Z  M 950.778 509.508 L 849.278 509.508 L 849.278 459.758 L 950.778 459.758 L 950.778 509.508 Z  M 950.778 511.508 L 950.778 561.258 L 849.278 561.258 L 849.278 511.508 L 950.778 511.508 Z  M 847.278 561.258 L 745.778 561.258 L 745.778 511.508 L 847.278 511.508 L 847.278 561.258 Z  M 847.278 563.258 L 847.278 613.008 L 745.778 613.008 L 745.778 563.258 L 847.278 563.258 Z  M 849.278 563.258 L 950.778 563.258 L 950.778 613.008 L 849.278 613.008 L 849.278 563.258 Z  M 950.778 615.008 L 950.778 664.758 L 849.278 664.758 L 849.278 615.008 L 950.778 615.008 Z  M 952.778 615.008 L 1054.278 615.008 L 1054.278 664.758 L 952.778 664.758 L 952.778 615.008 Z  M 952.778 613.008 L 952.778 563.258 L 1054.278 563.258 L 1054.278 613.008 L 952.778 613.008 Z  M 1056.278 563.258 L 1157.778 563.258 L 1157.778 613.008 L 1056.278 613.008 L 1056.278 563.258 Z  M 1056.278 561.258 L 1056.278 511.508 L 1157.778 511.508 L 1157.778 561.258 L 1056.278 561.258 Z  M 847.278 459.758 L 847.278 509.508 L 745.778 509.508 L 745.778 459.758 L 847.278 459.758 Z  M 745.778 615.008 L 847.278 615.008 L 847.278 664.758 L 745.778 664.758 L 745.778 615.008 Z  M 1056.278 664.758 L 1056.278 615.008 L 1157.778 615.008 L 1157.778 664.758 L 1056.278 664.758 Z " fill="rgb(228,228,228)"/><path d=" M 914.549 513.986 L 873.157 513.048 C 869.016 497.01 870.88 481.739 874.184 467.666 L 915.577 468.603 C 911.39 483.399 911.037 499.016 914.549 513.986 L 914.549 513.986 Z " fill="rgb(138,189,170)"/><path d=" M 881.276 477.696 L 881.298 476.121 L 902.743 476.887 L 902.72 478.462 L 881.276 477.696 L 881.276 477.696 Z " fill="rgb(255,255,255)"/><path d=" M 881.186 483.996 L 881.208 482.421 L 902.652 483.188 L 902.63 484.763 L 881.186 483.996 L 881.186 483.996 Z " fill="rgb(255,255,255)"/><path d=" M 881.095 490.296 L 881.118 488.721 L 902.562 489.488 L 902.54 491.063 L 881.095 490.296 L 881.095 490.296 Z " fill="rgb(255,255,255)"/><path d=" M 881.005 496.596 L 881.027 495.021 L 902.472 495.788 L 902.449 497.363 L 881.005 496.596 L 881.005 496.596 Z " fill="rgb(255,255,255)"/><path d=" M 880.915 502.896 L 880.937 501.321 L 902.382 502.088 L 902.359 503.663 L 880.915 502.896 L 880.915 502.896 Z " fill="rgb(255,255,255)"/><path d=" M 824.549 629.986 L 783.157 629.048 C 779.016 613.01 780.88 597.739 784.184 583.666 L 825.577 584.603 C 821.39 599.399 821.037 615.016 824.549 629.986 L 824.549 629.986 Z " fill="rgb(240,240,240)"/><path d=" M 791.276 593.696 L 791.298 592.121 L 812.743 592.887 L 812.72 594.462 L 791.276 593.696 L 791.276 593.696 Z " fill="rgb(255,255,255)"/><path d=" M 791.186 599.996 L 791.208 598.421 L 812.652 599.188 L 812.63 600.763 L 791.186 599.996 L 791.186 599.996 Z " fill="rgb(255,255,255)"/><path d=" M 791.095 606.296 L 791.118 604.721 L 812.562 605.488 L 812.54 607.063 L 791.095 606.296 L 791.095 606.296 Z " fill="rgb(255,255,255)"/><path d=" M 791.005 612.596 L 791.027 611.021 L 812.472 611.788 L 812.449 613.363 L 791.005 612.596 L 791.005 612.596 Z " fill="rgb(255,255,255)"/><path d=" M 790.915 618.896 L 790.937 617.321 L 812.382 618.088 L 812.359 619.663 L 790.915 618.896 L 790.915 618.896 Z " fill="rgb(255,255,255)"/><path d=" M 1040.549 576.986 L 999.157 576.048 C 995.016 560.01 996.88 544.739 1000.184 530.666 L 1041.577 531.603 C 1037.39 546.399 1037.037 562.016 1040.549 576.986 L 1040.549 576.986 Z " fill="rgb(240,240,240)"/><path d=" M 1007.276 540.696 L 1007.298 539.121 L 1028.743 539.887 L 1028.72 541.462 L 1007.276 540.696 L 1007.276 540.696 Z " fill="rgb(255,255,255)"/><path d=" M 1007.186 546.996 L 1007.208 545.421 L 1028.652 546.188 L 1028.63 547.763 L 1007.186 546.996 L 1007.186 546.996 Z " fill="rgb(255,255,255)"/><path d=" M 1007.095 553.296 L 1007.118 551.721 L 1028.562 552.488 L 1028.54 554.063 L 1007.095 553.296 L 1007.095 553.296 Z " fill="rgb(255,255,255)"/><path d=" M 1007.005 559.596 L 1007.027 558.021 L 1028.472 558.788 L 1028.449 560.363 L 1007.005 559.596 L 1007.005 559.596 Z " fill="rgb(255,255,255)"/><path d=" M 1006.915 565.896 L 1006.937 564.321 L 1028.382 565.088 L 1028.359 566.663 L 1006.915 565.896 L 1006.915 565.896 Z " fill="rgb(255,255,255)"/><path d=" M 1022.549 566.986 L 981.157 566.048 C 977.016 550.01 978.88 534.739 982.184 520.666 L 1023.577 521.603 C 1019.39 536.399 1019.037 552.016 1022.549 566.986 L 1022.549 566.986 Z " fill="rgb(138,189,170)"/><path d=" M 989.276 530.696 L 989.298 529.121 L 1010.743 529.887 L 1010.72 531.462 L 989.276 530.696 L 989.276 530.696 Z " fill="rgb(255,255,255)"/><path d=" M 989.186 536.996 L 989.208 535.421 L 1010.652 536.188 L 1010.63 537.763 L 989.186 536.996 L 989.186 536.996 Z " fill="rgb(255,255,255)"/><path d=" M 989.095 543.296 L 989.118 541.721 L 1010.562 542.488 L 1010.54 544.063 L 989.095 543.296 L 989.095 543.296 Z " fill="rgb(255,255,255)"/><path d=" M 989.005 549.596 L 989.027 548.021 L 1010.472 548.788 L 1010.449 550.363 L 989.005 549.596 L 989.005 549.596 Z " fill="rgb(255,255,255)"/><path d=" M 988.915 555.896 L 988.937 554.321 L 1010.382 555.088 L 1010.359 556.663 L 988.915 555.896 L 988.915 555.896 Z " fill="rgb(255,255,255)"/><path d=" M 1175.216 658.335 L 1133.823 657.398 C 1129.683 641.359 1131.547 626.088 1134.851 612.016 L 1176.243 612.953 C 1172.056 627.748 1171.703 643.366 1175.216 658.335 L 1175.216 658.335 Z " fill="rgb(138,189,170)"/><path d=" M 1141.942 622.045 L 1141.965 620.47 L 1163.409 621.237 L 1163.386 622.812 L 1141.942 622.045 L 1141.942 622.045 Z " fill="rgb(255,255,255)"/><path d=" M 1141.852 628.345 L 1141.874 626.77 L 1163.319 627.537 L 1163.296 629.112 L 1141.852 628.345 L 1141.852 628.345 Z " fill="rgb(255,255,255)"/><path d=" M 1141.761 634.646 L 1141.784 633.071 L 1163.228 633.837 L 1163.206 635.412 L 1141.761 634.646 L 1141.761 634.646 Z " fill="rgb(255,255,255)"/><path d=" M 1141.671 640.946 L 1141.694 639.371 L 1163.138 640.137 L 1163.115 641.712 L 1141.671 640.946 L 1141.671 640.946 Z " fill="rgb(255,255,255)"/><path d=" M 1141.581 647.246 L 1141.603 645.671 L 1163.048 646.438 L 1163.025 648.013 L 1141.581 647.246 L 1141.581 647.246 Z " fill="rgb(255,255,255)"/><path d=" M 1130.549 521.986 L 1089.157 521.048 C 1085.016 505.01 1086.88 489.739 1090.184 475.666 L 1131.577 476.603 C 1127.39 491.399 1127.037 507.016 1130.549 521.986 L 1130.549 521.986 Z " fill="rgb(240,240,240)"/><path d=" M 1097.276 485.696 L 1097.298 484.121 L 1118.743 484.887 L 1118.72 486.462 L 1097.276 485.696 L 1097.276 485.696 Z " fill="rgb(255,255,255)"/><path d=" M 1097.186 491.996 L 1097.208 490.421 L 1118.652 491.188 L 1118.63 492.763 L 1097.186 491.996 L 1097.186 491.996 Z " fill="rgb(255,255,255)"/><path d=" M 1097.095 498.296 L 1097.118 496.721 L 1118.562 497.488 L 1118.54 499.063 L 1097.095 498.296 L 1097.095 498.296 Z " fill="rgb(255,255,255)"/><path d=" M 1097.005 504.596 L 1097.027 503.021 L 1118.472 503.788 L 1118.449 505.363 L 1097.005 504.596 L 1097.005 504.596 Z " fill="rgb(255,255,255)"/><path d=" M 1096.915 510.896 L 1096.937 509.321 L 1118.382 510.088 L 1118.359 511.663 L 1096.915 510.896 L 1096.915 510.896 Z " fill="rgb(255,255,255)"/><path d=" M 1172.983 624.89 C 1175.873 624.179 1178.299 622.224 1179.609 619.551 C 1180.919 616.879 1180.977 613.764 1179.769 611.044 L 1205.869 586.635 L 1187.813 582.296 L 1165.797 606.141 C 1161.263 608.525 1159.229 613.924 1161.062 618.707 C 1162.896 623.491 1168.017 626.147 1172.983 624.89 L 1172.983 624.89 Z " fill="rgb(255,182,182)"/><path d=" M 1186.466 605.228 L 1174.294 588.067 L 1220.013 540.78 L 1230.628 466.245 C 1231.691 458.786 1236.016 452.186 1242.43 448.234 C 1248.845 444.283 1256.685 443.389 1263.825 445.795 L 1263.825 445.795 C 1277.082 450.28 1284.207 464.65 1279.751 477.917 L 1252.667 558.275 L 1186.466 605.228 Z " fill="rgb(228,228,228)"/><path d=" M 1272.308 922.817 L 1258.796 922.816 L 1252.368 870.699 L 1272.311 870.7 L 1272.308 922.817 L 1272.308 922.817 Z " fill="rgb(255,182,182)"/><path d=" M 1279.577 948.473 L 1269.989 948.473 L 1268.278 939.421 L 1263.895 948.473 L 1238.466 948.473 C 1235.964 948.473 1233.753 946.846 1233.008 944.457 C 1232.264 942.069 1233.159 939.474 1235.218 938.052 L 1255.524 924.028 L 1255.524 914.876 L 1276.884 916.151 L 1279.577 948.473 Z " fill="rgb(64,64,64)"/><path d=" M 1355.669 909.067 L 1343.8 915.525 L 1313.243 872.819 L 1330.76 863.288 L 1355.669 909.067 L 1355.669 909.067 Z " fill="rgb(255,182,182)"/><path d=" M 1374.316 928.128 L 1365.894 932.711 L 1360.065 925.578 L 1360.541 935.624 L 1338.205 947.778 C 1336.007 948.974 1333.288 948.602 1331.492 946.86 C 1329.696 945.118 1329.242 942.41 1330.371 940.178 L 1341.505 918.153 L 1337.131 910.115 L 1356.502 901.025 L 1374.316 928.128 Z " fill="rgb(64,64,64)"/><path d=" M 1278.001 904.258 L 1250.077 904.258 L 1250.077 804.824 L 1232.79 739.997 C 1220.383 693.638 1217.086 645.311 1223.081 597.696 L 1223.105 597.501 L 1223.255 597.375 C 1223.699 597.002 1267.944 560.418 1295.93 588.405 C 1314.794 607.269 1297.069 675.1 1296.077 678.824 L 1296.077 795.758 L 1278.001 904.258 Z " fill="rgb(64,64,64)"/><path d=" M 1214.577 615.758 L 1223.577 525.758 C 1222.408 523.304 1205.577 507.758 1223.175 480.426 L 1242.183 435.808 L 1277.781 435.255 L 1277.93 435.405 C 1294.94 452.377 1302.317 476.742 1297.579 500.299 L 1287.089 552.746 L 1296.178 589.1 L 1214.577 615.758 Z " fill="rgb(228,228,228)"/><path d=" M 1261.342 805.337 L 1318.706 886.024 L 1340.711 870.379 L 1292.802 771.928 L 1261.342 805.337 L 1261.342 805.337 Z " fill="rgb(64,64,64)"/><circle vector-effect="non-scaling-stroke" cx="1256.65571" cy="393.86840261035576" r="32.86999999999989" fill="rgb(255,182,182)"/><g opacity="0.1"><path d=" M 1248.577 512.758 L 1257.577 566.758 L 1248.577 611.758 L 1230.577 611.758 L 1238.759 566.758 L 1248.577 512.758 L 1248.577 512.758 Z " fill="rgb(0,0,0)"/></g><path d=" M 1257.164 658.123 C 1259.378 656.135 1260.598 653.268 1260.495 650.294 C 1260.392 647.32 1258.977 644.544 1256.631 642.713 L 1268.164 608.89 L 1250.191 613.563 L 1241.995 644.966 C 1239.118 649.204 1239.865 654.925 1243.735 658.282 C 1247.605 661.639 1253.374 661.571 1257.164 658.123 Z " fill="rgb(255,182,182)"/><path d=" M 1259.801 634.429 L 1240.982 625.02 L 1259.052 561.777 L 1233.323 491.022 C 1230.748 483.941 1231.456 476.082 1235.255 469.576 C 1239.053 463.069 1245.549 458.589 1252.981 457.35 L 1252.981 457.35 C 1266.788 455.065 1279.84 464.388 1282.156 478.19 L 1296.097 561.836 L 1259.801 634.429 Z " fill="rgb(228,228,228)"/><path d=" M 1518.797 947.278 C 1518.798 947.594 1518.673 947.897 1518.45 948.121 C 1518.226 948.344 1517.923 948.469 1517.607 948.468 L 870.317 948.468 C 869.892 948.468 869.499 948.241 869.287 947.873 C 869.074 947.505 869.074 947.051 869.287 946.683 C 869.499 946.315 869.892 946.088 870.317 946.088 L 1517.607 946.088 C 1518.264 946.09 1518.796 946.622 1518.797 947.278 Z " fill="rgb(202,202,202)"/><path d=" M 1384.494 392.261 C 1380.347 398.993 1371.563 401.961 1363.772 400.613 C 1355.981 399.265 1349.211 394.237 1344.21 388.112 C 1339.21 381.987 1335.751 374.777 1332.347 367.64 C 1328.943 360.504 1325.5 353.289 1320.525 347.143 C 1315.55 340.998 1308.815 335.931 1301.035 334.519 C 1296.801 333.751 1292.006 334.258 1288.916 337.254 C 1286.786 339.499 1285.624 342.491 1285.678 345.585 C 1282.944 344.622 1279.91 345.085 1277.586 346.817 C 1275.262 348.55 1273.953 351.327 1274.096 354.222 C 1273.981 354.22 1273.867 354.212 1273.752 354.212 C 1259.255 345.97 1237.253 350.758 1237.253 359.758 C 1229.299 359.758 1219.577 367.614 1219.577 379.542 L 1219.577 379.542 C 1236.025 379.542 1245.705 400.617 1236.103 415.728 C 1233.624 419.582 1230.891 423.267 1227.923 426.758 L 1248.492 426.758 C 1250.217 424.282 1251.258 421.394 1251.51 418.387 C 1252.265 421.119 1252.717 423.927 1252.856 426.758 C 1252.856 426.758 1309.041 433.998 1294.54 377.995 C 1295.499 377.947 1296.433 377.665 1297.257 377.172 C 1299.447 375.852 1300.64 373.061 1300.849 370.228 Q 1301.662 370.446 1302.47 370.662 C 1306.335 371.705 1310.351 373.058 1313.004 376.056 C 1317.488 381.124 1316.545 388.817 1318.173 395.385 C 1320.137 403.306 1326.011 409.713 1332.537 414.614 C 1339.548 419.879 1347.738 423.879 1356.467 424.709 C 1365.195 425.54 1374.483 422.885 1380.531 416.537 C 1386.58 410.189 1388.686 399.963 1384.494 392.261 Z " fill="rgb(64,64,64)"/></g></g></svg>